<svg xmlns="http://www.w3.org/2000/svg" fill="none" viewBox="0 0 128 128">
    <path fill-rule="evenodd" d="M66 4.38Q61.5 4.25 57.88 4.63Q54.25 5 51.88 5.5Q49.5 6 45.13 7.5Q40.75 9 38 10.38Q35.25 11.75 30.63 15Q26 18.25 24.13 20Q22.25 21.75 22.25 22Q22.25 22.25 20.88 23.5Q19.5 24.75 19.5 25Q19.5 25.25 18 26.88Q16.5 28.5 15 30.75Q13.5 33 11.5 36.88Q9.5 40.75 7.63 46.5Q5.75 52.25 5 57.38Q4.25 62.5 4.25 66.75Q4.25 71 5 76Q5.75 81 7.63 86.88Q9.5 92.75 11.5 96.63Q13.5 100.5 15.63 103.63Q17.75 106.75 19 108Q20.25 109.25 20.25 109.5Q20.25 109.75 23.75 113.13Q27.25 116.5 30.25 118.63Q33.25 120.75 35.75 122Q38.25 123.25 33.88 120Q29.5 116.75 26.38 113.38Q23.25 110 20.63 106Q18 102 16.75 99.38Q15.5 96.75 14.5 93.88Q13.5 91 12.5 86Q11.5 81 11.38 76.63Q11.25 72.25 11.63 69Q12 65.75 12.63 62.88Q13.25 60 15 55.38Q16.75 50.75 18.5 47.63Q20.25 44.5 21.88 42.25Q23.5 40 26.88 36.5Q30.25 33 34.13 30.25Q38 27.5 42.5 25.38Q47 23.25 52 22Q57 20.75 61.75 20.5Q66.5 20.25 71.13 20.88Q75.75 21.5 80.25 23Q84.75 24.5 88.25 26.38Q91.75 28.25 94.5 30.25Q97.25 32.25 99.75 34.63Q102.25 37 102.25 37.25Q102.25 37.5 103.13 38.25Q104 39 104 39.25Q104 39.5 105.63 41.38Q107.25 43.25 108.5 45.25Q109.75 47.25 111.63 51.25Q113.5 55.25 114.75 59.63Q116 64 116.5 68Q117 72 117 75Q117 78 116.38 82.5Q115.75 87 114.63 90.88Q113.5 94.75 111.63 98.75Q109.75 102.75 108 105.5Q106.25 108.25 104.25 110.5Q102.25 112.75 102.25 113Q102.25 113.25 98.88 116.38Q95.5 119.5 92.75 121.25Q90 123 90.25 123.13Q90.5 123.25 94.38 120.88Q98.25 118.5 102.25 115Q106.25 111.5 106.25 111.25Q106.25 111 107.88 109.38Q109.5 107.75 111.5 105Q113.5 102.25 116 97.5Q118.5 92.75 120.13 88Q121.75 83.25 122.75 77.5Q123.75 71.75 123.75 66.5Q123.75 61.25 123 56.5Q122.25 51.75 120.75 47Q119.25 42.25 116.63 37.13Q114 32 111 28Q108 24 105.38 21.38Q102.75 18.75 102.5 18.75Q102.25 18.75 100.5 17.13Q98.75 15.5 96.5 14Q94.25 12.5 91.38 11Q88.5 9.5 84.5 8Q80.5 6.5 75.5 5.5Q70.5 4.5 66 4.38ZM29.75 59Q30.5 56.25 29.13 58.75Q27.75 61.25 26.5 65.5Q25.25 69.75 25 74.5Q24.75 79.25 25.13 82.13Q25.5 85 26.88 89.25Q28.25 93.5 30.25 97Q32.25 100.5 35 103.63Q37.75 106.75 38 106.75Q38.25 106.75 38.88 107.5Q39.5 108.25 41.38 109.63Q43.25 111 46.63 112.75Q50 114.5 54 115.63Q58 116.75 62 117Q66 117.25 69.63 116.75Q73.25 116.25 76.63 115.13Q80 114 83.38 112.13Q86.75 110.25 90.13 107.25Q93.5 104.25 93.5 104Q93.5 103.75 94.25 103.13Q95 102.5 96.25 100.75Q97.5 99 99.38 95.25Q101.25 91.5 102.13 88.5Q103 85.5 103.38 83.13Q103.75 80.75 103.75 76.88Q103.75 73 103.25 70Q102.75 67 101.63 63.75Q100.5 60.5 99.38 58.38Q98.25 56.25 98.13 56.5Q98 56.75 98.38 57.5Q98.75 58.25 99.25 60.75Q99.75 63.25 99.75 67.63Q99.75 72 98.63 76.25Q97.5 80.5 95.88 83.63Q94.25 86.75 92.88 88.63Q91.5 90.5 89.25 92.75Q87 95 84.75 96.63Q82.5 98.25 78.75 100Q75 101.75 71.38 102.5Q67.75 103.25 63.38 103.13Q59 103 55 101.88Q51 100.75 48.75 99.63Q46.5 98.5 44.5 97.13Q42.5 95.75 39.38 92.63Q36.25 89.5 34.75 87.25Q33.25 85 32.25 83Q31.25 81 30.25 77.88Q29.25 74.75 28.88 70.75Q28.5 66.75 28.75 64.25Q29 61.75 29.75 59Z" />
    <style>
        path { fill: #000; }
        @media (prefers-color-scheme: dark) {
            path { fill: #FFF; }
        }
    </style>
</svg>
